<svg width="38" height="38" viewBox="0 0 38 38" fill="none" xmlns="http://www.w3.org/2000/svg">
<path d="M23.0313 4.64478H21.9873C21.5019 4.64478 21.1084 5.03826 21.1084 5.52368C21.1084 6.0091 21.5019 6.40259 21.9873 6.40259H23.0313C23.5167 6.40259 23.9102 6.0091 23.9102 5.52368C23.9102 5.03826 23.5167 4.64478 23.0313 4.64478Z" fill="#00B871"/>
<path d="M27.8604 4.64478H26.8164C26.331 4.64478 25.9375 5.03826 25.9375 5.52368C25.9375 6.0091 26.331 6.40259 26.8164 6.40259H27.8604C28.3458 6.40259 28.7393 6.0091 28.7393 5.52368C28.7393 5.03826 28.3458 4.64478 27.8604 4.64478Z" fill="#00B871"/>
<path d="M32.689 4.64478H31.645C31.1596 4.64478 30.7661 5.03826 30.7661 5.52368C30.7661 6.0091 31.1596 6.40259 31.645 6.40259H32.689C33.1744 6.40259 33.5679 6.0091 33.5679 5.52368C33.5679 5.03826 33.1744 4.64478 32.689 4.64478Z" fill="#00B871"/>
<path d="M13.1747 4.64478H5.64014C5.15472 4.64478 4.76123 5.03826 4.76123 5.52368C4.76123 6.0091 5.15472 6.40259 5.64014 6.40259H13.1747C13.6602 6.40259 14.0536 6.0091 14.0536 5.52368C14.0536 5.03826 13.6602 4.64478 13.1747 4.64478Z" fill="#00B871"/>
<path d="M12.6416 14.061C10.616 14.061 8.96803 15.7135 8.96803 17.7447V18.0216H6.62451C6.13909 18.0216 5.74561 18.415 5.74561 18.9005V28.8826C5.74561 30.5339 7.0891 31.8773 8.74039 31.8773H16.5628C18.2142 31.8773 19.5576 30.5338 19.5576 28.8826V18.9005C19.5576 18.415 19.1641 18.0216 18.6787 18.0216H16.3151V17.7447C16.3152 15.7136 14.6672 14.061 12.6416 14.061ZM10.7259 17.7447C10.7259 16.6828 11.5853 15.8188 12.6417 15.8188C13.698 15.8188 14.5573 16.6828 14.5573 17.7447V18.0216H10.7259V17.7447ZM17.7999 19.7794V28.8826C17.7999 29.5647 17.245 30.1195 16.5629 30.1195H8.74039C8.05827 30.1195 7.50342 29.5646 7.50342 28.8826V19.7794H8.96812V21.632C8.96812 22.1174 9.3616 22.5109 9.84702 22.5109C10.3324 22.5109 10.7259 22.1174 10.7259 21.632V19.7794H14.5573V21.632C14.5573 22.1174 14.9508 22.5109 15.4363 22.5109C15.9217 22.5109 16.3152 22.1174 16.3152 21.632V19.7794H17.7999Z" fill="#00B871"/>
<path d="M32.8622 35.702H2.95436C2.29456 35.702 1.75781 35.1679 1.75781 34.5114V10.5065H35.5998V18.8764H37.3577V3.48988C37.3577 1.86408 36.0324 0.541504 34.4033 0.541504H2.95436C1.3253 0.541416 0 1.86408 0 3.48988V34.5114C0 36.1372 1.3253 37.4598 2.95436 37.4598H35.6616C34.7801 37.0316 33.7838 36.4534 32.8622 35.702ZM1.75781 3.48988C1.75781 2.83334 2.29456 2.29932 2.95436 2.29932H34.4033C35.0631 2.29932 35.5998 2.83343 35.5998 3.48988V8.74864H1.75781V3.48988Z" fill="#00B871"/>
</svg>
